<svg xmlns="http://www.w3.org/2000/svg" viewBox="0 0 120 140" role="img" aria-label="Schwelle · Hermetik">
  <defs>
    <linearGradient id="bghermetik1" x1="0" y1="0" x2="0" y2="1">
      <stop offset="0%" stop-color="#181428"/>
      <stop offset="55%" stop-color="#0c0a18"/>
      <stop offset="100%" stop-color="#060410"/>
    </linearGradient>
    <radialGradient id="glowhermetik1" cx="50%" cy="38%" r="55%">
      <stop offset="0%" stop-color="#9a8fd4" stop-opacity="0.55"/>
      <stop offset="55%" stop-color="#f0d878" stop-opacity="0.12"/>
      <stop offset="100%" stop-color="#000" stop-opacity="0"/>
    </radialGradient>
    <linearGradient id="goldhermetik1" x1="0" y1="0" x2="1" y2="1">
      <stop offset="0%" stop-color="#f0d878"/>
      <stop offset="100%" stop-color="#c9a030"/>
    </linearGradient>
  </defs>
  <rect width="120" height="140" rx="12" fill="url(#bghermetik1)"/>
  <rect x="3" y="3" width="114" height="134" rx="2" fill="none" stroke="#e8c547" stroke-opacity="0.55" stroke-width="1.5"/>
  <rect x="7" y="7" width="106" height="126" rx="1" fill="none" stroke="#9a8fd4" stroke-opacity="0.35" stroke-width="0.8"/>
  <path d="M10 10 L16 10 L10 16 Z M110 10 L104 10 L110 16 Z M10 130 L16 130 L10 124 Z M110 130 L104 130 L110 124 Z" fill="#e8c547" fill-opacity="0.45"/>
  <circle cx="60" cy="58" r="46" fill="url(#glowhermetik1)"/>
  <path d="M26 118 V38 Q26 22 44 22 H76 Q94 22 94 38 V118" fill="none" stroke="url(#goldhermetik1)" stroke-width="2.6"/>
  <path d="M38 118 V48 Q38 36 50 36 H70 Q82 36 82 48 V118" fill="#1a1830" fill-opacity="0.55" stroke="#b0a8e0" stroke-width="1.8"/>
  <ellipse cx="60" cy="72" rx="10" ry="22" fill="#f0d878" fill-opacity="0.35"/>
  <circle cx="74" cy="74" r="2.8" fill="#f0d878"/>
  <path d="M18 118 H102" stroke="#9a8fd4" stroke-width="2" opacity="0.85"/>
  <path d="M48 28 L60 14 L72 28" fill="none" stroke="#b0a8e0" stroke-width="1.5"/>
  <g opacity="0.4" transform="translate(90 14)" fill="none" stroke="#e8c547" stroke-width="1.3">
        <circle cx="14" cy="14" r="10"/>
        <circle cx="14" cy="14" r="5"/>
        <path d="M14 4 L22.6 19 L5.4 19 Z"/>
      </g>
</svg>
